<svg xmlns="http://www.w3.org/2000/svg" xmlns:xlink="http://www.w3.org/1999/xlink" viewBox="0 0 307 155" version="1.1" class="colorScheme-track" role="presentation">
  <path d="M46.2149,0.2064 L46.2149,1.4044 C46.2149,60.4934 94.2839,108.5544 153.3689,108.5544 C212.4529,108.5544 260.5259,60.4934 260.5259,1.4044 L260.5259,1.4044 L260.5259,0.2064 L270.6499,0.2064 L270.6499,1.4044 C270.6499,66.0684 218.0359,118.6824 153.3689,118.6824 C88.7019,118.6824 36.0909,66.0684 36.0909,1.4044 L36.0909,1.4044 L36.0909,0.2064 L46.2149,0.2064 Z" class="svgPath-track svgPath-track--inner" fill="currentColor"></path>
  <path d="M10.6307,0.2061 L10.6307,1.4041 C10.6307,80.1061 74.6637,144.1341 153.3687,144.1341 C232.0777,144.1341 296.1057,80.1061 296.1057,1.4041 L296.1057,1.4041 L296.1057,0.2061 L306.2307,0.2061 L306.2307,1.4041 C306.2307,85.6891 237.6567,154.2731 153.3687,154.2731 C69.0837,154.2731 0.5107,85.6891 0.5107,1.4041 L0.5107,1.4041 L0.5107,0.2061 L10.6307,0.2061 Z" class="svgPath-track svgPath-track--outer" fill="currentColor"></path>
</svg>